<svg width="36" height="36" viewBox="0 0 36 36" fill="none" xmlns="http://www.w3.org/2000/svg">
<g clip-path="url(#clip0_4_180)">
<path fill-rule="evenodd" clip-rule="evenodd" d="M18.2881 0C8.53719 0 0.654541 7.94076 0.654541 17.7646C0.654541 25.6172 5.70522 32.2644 12.7119 34.617C13.5879 34.7939 13.9088 34.2348 13.9088 33.7645C13.9088 33.3526 13.8799 31.941 13.8799 30.4701C8.97465 31.5291 7.95318 28.3525 7.95318 28.3525C7.16488 26.2937 5.99687 25.7645 5.99687 25.7645C4.39139 24.6763 6.11381 24.6763 6.11381 24.6763C7.89471 24.7939 8.82919 26.4998 8.82919 26.4998C10.4054 29.2054 12.9454 28.4409 13.9672 27.9702C14.113 26.8232 14.5805 26.0291 15.0768 25.588C11.1645 25.1762 7.0483 23.6469 7.0483 16.8232C7.0483 14.8821 7.74853 13.2939 8.85807 12.0588C8.68301 11.6177 8.06977 9.79384 9.03349 7.35278C9.03349 7.35278 10.5224 6.88211 13.8795 9.17627C15.3168 8.78741 16.7991 8.5896 18.2881 8.58793C19.777 8.58793 21.2947 8.79403 22.6963 9.17627C26.0538 6.88211 27.5427 7.35278 27.5427 7.35278C28.5064 9.79384 27.8928 11.6177 27.7177 12.0588C28.8565 13.2939 29.5279 14.8821 29.5279 16.8232C29.5279 23.6469 25.4117 25.1466 21.4702 25.588C22.1126 26.1468 22.667 27.2054 22.667 28.882C22.667 31.2642 22.6382 33.1761 22.6382 33.7641C22.6382 34.2348 22.9594 34.7939 23.8351 34.6174C30.8417 32.264 35.8924 25.6172 35.8924 17.7646C35.9213 7.94076 28.0097 0 18.2881 0Z" fill="white"/>
</g>
<defs>
<clipPath id="clip0_4_180">
<rect width="35.2379" height="35.2379" fill="white" transform="translate(0.654541)"/>
</clipPath>
</defs>
</svg>
