<svg width="36" height="36" viewBox="0 0 36 36" fill="none" xmlns="http://www.w3.org/2000/svg">
<g clip-path="url(#clip0_4_182)">
<path d="M17.9279 3.17279C22.6355 3.17279 23.193 3.19344 25.0443 3.27603C26.7649 3.35173 27.6941 3.64079 28.3135 3.88168C29.1325 4.19827 29.7244 4.58368 30.3369 5.19622C30.9563 5.81563 31.3348 6.40064 31.6514 7.21964C31.8923 7.83906 32.1814 8.77507 32.2571 10.4888C32.3397 12.347 32.3603 12.9045 32.3603 17.6052C32.3603 22.3128 32.3397 22.8702 32.2571 24.7216C32.1814 26.4422 31.8923 27.3713 31.6514 27.9907C31.3348 28.8098 30.9494 29.4016 30.3369 30.0142C29.7175 30.6336 29.1325 31.0121 28.3135 31.3287C27.6941 31.5696 26.758 31.8587 25.0443 31.9344C23.1861 32.017 22.6286 32.0376 17.9279 32.0376C13.2204 32.0376 12.6629 32.017 10.8115 31.9344C9.09091 31.8587 8.16179 31.5696 7.54237 31.3287C6.72336 31.0121 6.13148 30.6267 5.51894 30.0142C4.89952 29.3948 4.52099 28.8098 4.2044 27.9907C3.96352 27.3713 3.67446 26.4353 3.59875 24.7216C3.51616 22.8634 3.49551 22.3059 3.49551 17.6052C3.49551 12.8976 3.51616 12.3402 3.59875 10.4888C3.67446 8.76819 3.96352 7.83906 4.2044 7.21964C4.52099 6.40064 4.90641 5.80875 5.51894 5.19622C6.13836 4.5768 6.72336 4.19827 7.54237 3.88168C8.16179 3.64079 9.09779 3.35173 10.8115 3.27603C12.6629 3.19344 13.2204 3.17279 17.9279 3.17279ZM17.9279 0C13.1446 0 12.5459 0.0206472 10.667 0.103236C8.79497 0.185825 7.50796 0.488651 6.39301 0.922242C5.22988 1.37648 4.2457 1.97525 3.26839 2.95943C2.28421 3.93674 1.68544 4.92092 1.2312 6.07717C0.797611 7.199 0.494785 8.47912 0.412196 10.3511C0.329607 12.2369 0.30896 12.8357 0.30896 17.619C0.30896 22.4022 0.329607 23.001 0.412196 24.8799C0.494785 26.7519 0.797611 28.0389 1.2312 29.1539C1.68544 30.317 2.28421 31.3012 3.26839 32.2785C4.2457 33.2558 5.22988 33.8614 6.38613 34.3088C7.50796 34.7424 8.78808 35.0452 10.6601 35.1278C12.539 35.2104 13.1378 35.231 17.921 35.231C22.7043 35.231 23.3031 35.2104 25.182 35.1278C27.054 35.0452 28.341 34.7424 29.456 34.3088C30.6122 33.8614 31.5964 33.2558 32.5737 32.2785C33.551 31.3012 34.1566 30.317 34.604 29.1608C35.0376 28.0389 35.3404 26.7588 35.423 24.8868C35.5056 23.0079 35.5262 22.4091 35.5262 17.6258C35.5262 12.8426 35.5056 12.2438 35.423 10.3649C35.3404 8.49289 35.0376 7.20588 34.604 6.09093C34.1704 4.92092 33.5716 3.93674 32.5874 2.95943C31.6101 1.98213 30.626 1.37648 29.4697 0.929125C28.3479 0.495533 27.0678 0.192707 25.1957 0.110119C23.31 0.0206472 22.7112 0 17.9279 0Z" fill="white"/>
<path d="M17.9279 8.5686C12.9313 8.5686 8.87756 12.6223 8.87756 17.619C8.87756 22.6156 12.9313 26.6693 17.9279 26.6693C22.9246 26.6693 26.9783 22.6156 26.9783 17.619C26.9783 12.6223 22.9246 8.5686 17.9279 8.5686ZM17.9279 23.4897C14.6863 23.4897 12.0572 20.8606 12.0572 17.619C12.0572 14.3774 14.6863 11.7483 17.9279 11.7483C21.1695 11.7483 23.7986 14.3774 23.7986 17.619C23.7986 20.8606 21.1695 23.4897 17.9279 23.4897Z" fill="white"/>
<path d="M29.4491 8.21056C29.4491 9.38057 28.4993 10.3235 27.3362 10.3235C26.1662 10.3235 25.2233 9.37369 25.2233 8.21056C25.2233 7.04055 26.173 6.09766 27.3362 6.09766C28.4993 6.09766 29.4491 7.04743 29.4491 8.21056Z" fill="white"/>
</g>
<defs>
<clipPath id="clip0_4_182">
<rect width="35.2379" height="35.2379" fill="white" transform="translate(0.30896)"/>
</clipPath>
</defs>
</svg>
