<svg width="36" height="36" viewBox="0 0 36 36" fill="none" xmlns="http://www.w3.org/2000/svg">
<g clip-path="url(#clip0_4_181)">
<path d="M32.6295 0H2.60155C1.16313 0 0 1.1356 0 2.53961V32.6914C0 34.0954 1.16313 35.2379 2.60155 35.2379H32.6295C34.0679 35.2379 35.2379 34.0954 35.2379 32.6983V2.53961C35.2379 1.1356 34.0679 0 32.6295 0ZM10.4544 30.0279H5.22375V13.2073H10.4544V30.0279ZM7.83906 10.9155C6.15975 10.9155 4.80392 9.55966 4.80392 7.88724C4.80392 6.21481 6.15975 4.85898 7.83906 4.85898C9.51149 4.85898 10.8673 6.21481 10.8673 7.88724C10.8673 9.55278 9.51149 10.9155 7.83906 10.9155ZM30.0279 30.0279H24.8042V21.8516C24.8042 19.9039 24.7698 17.3918 22.0856 17.3918C19.3671 17.3918 18.9541 19.5185 18.9541 21.714V30.0279H13.7373V13.2073H18.7477V15.5061H18.8165C19.5116 14.1846 21.2185 12.7875 23.7581 12.7875C29.0506 12.7875 30.0279 16.27 30.0279 20.7986V30.0279Z" fill="white"/>
</g>
<defs>
<clipPath id="clip0_4_181">
<rect width="35.2379" height="35.2379" fill="white"/>
</clipPath>
</defs>
</svg>
