<svg width="34" height="27" viewBox="0 0 34 27" fill="none" xmlns="http://www.w3.org/2000/svg">
<path d="M33.9996 24.0815C33.9995 24.8247 33.7261 25.469 33.1803 26.0151C32.6342 26.5609 31.9898 26.8344 31.2467 26.8345H3.71643C2.97314 26.8345 2.32805 26.561 1.78186 26.0151C1.23619 25.4691 0.963602 24.8246 0.963501 24.0815V5.66553L17.4811 15.0317L33.9996 5.66553V24.0815ZM31.2467 0.404785C31.9897 0.404901 32.6342 0.678419 33.1803 1.22412C33.4618 1.50583 33.6688 1.81471 33.8053 2.14893L17.4811 11.3159L1.16077 2.1333C1.29709 1.8047 1.50443 1.50171 1.78186 1.22412C2.32805 0.678236 2.97314 0.404785 3.71643 0.404785H31.2467Z" fill="white"/>
</svg>
